<svg xmlns="http://www.w3.org/2000/svg" fill="none" version="1.2" viewBox="0 0 34 32"><path fill="currentColor" fill-rule="evenodd" d="M31 1H3c-1.10457 0-2 .89543-2 2v18.4c0 1.1046.89543 2 2 2h28c1.1046 0 2-.8954 2-2V3c0-1.10457-.8954-2-2-2ZM17 6.375c-3.1066 0-5.625 2.5184-5.625 5.625s2.5184 5.625 5.625 5.625 5.625-2.5184 5.625-5.625S20.1066 6.375 17 6.375Z" clip-rule="evenodd"/><path fill="currentColor" d="M3 2h28V0H3v2ZM2 3c0-.55228.44772-1 1-1V0C1.34315 0 0 1.34315 0 3h2Zm0 18.4V3H0v18.4h2Zm1 1c-.55229 0-1-.4477-1-1H0c0 1.6569 1.34315 3 3 3v-2Zm28 0H3v2h28v-2Zm1-1c0 .5523-.4477 1-1 1v2c1.6569 0 3-1.3431 3-3h-2ZM32 3v18.4h2V3h-2Zm-1-1c.5523 0 1 .44771 1 1h2c0-1.65685-1.3431-3-3-3v2ZM12.375 12c0-2.55432 2.0707-4.625 4.625-4.625v-2c-3.6589 0-6.625 2.96611-6.625 6.625h2ZM17 16.625c-2.5543 0-4.625-2.0707-4.625-4.625h-2c0 3.6589 2.9661 6.625 6.625 6.625v-2ZM21.625 12c0 2.5543-2.0707 4.625-4.625 4.625v2c3.6589 0 6.625-2.9661 6.625-6.625h-2ZM17 7.375c2.5543 0 4.625 2.07068 4.625 4.625h2c0-3.65889-2.9661-6.625-6.625-6.625v2Z"/><path stroke="currentColor" stroke-linecap="round" stroke-linejoin="round" stroke-width="2" d="M10 30h12.8M17 23v6.4"/></svg>