<svg xmlns="http://www.w3.org/2000/svg" version="1.2" viewBox="0 0 38 25"><path fill="currentColor" stroke="currentColor" stroke-width=".25" d="M2.28 23.72c.192 0 .346667-.05333.464-.16.117333-.10667.197333-.21333.24-.32l1.984-5.12h11.328l1.984 5.12c.042667.10667.122667.21333.24.32.117333.10667.272.16.464.16h.64c.170667 0 .32-.064.448-.192s.192-.27733.192-.448l-.064-.352L12.104 1.96c-.170667-.42667-.48-.64-.928-.64h-1.088c-.448 0-.757333.21333-.928.64L1.064 22.728 1 23.08c0 .17067.064.32.192.448s.277333.192.448.192h.64Zm13.248-7.52H5.736l4.896-12.608L15.528 16.2Zm15.204571 7.84c2.304 0 4.005334-.752 5.104-2.256 1.098667-1.504 1.68-3.33333 1.744-5.488.021334-.21333.032-.512.032-.896s-.010666-.68267-.032-.896c-.064-2.15467-.645333-3.984-1.744-5.488-1.098666-1.504-2.8-2.256-5.104-2.256-2.325333 0-4.117333.84267-5.376 2.528V1.704c0-.21333-.064-.384-.192-.512s-.298666-.192-.512-.192h-.544c-.213333 0-.384.064-.512.192s-.192.29867-.192.512v21.312c0 .21333.064.384.192.512s.298667.192.512.192h.544c.213334 0 .384-.064.512-.192s.192-.29867.192-.512v-1.504c1.237334 1.68533 3.029334 2.528 5.376 2.528Zm-.192-1.856c-1.685333 0-2.954666-.56-3.808-1.68-.853333-1.12-1.312-2.43733-1.376-3.952l-.032-1.248.032-1.248c.021334-.91733.224-1.78667.608-2.608.384-.82133.96-1.49867 1.728-2.032.768-.53333 1.717334-.8 2.848-.8 1.877334 0 3.2.63467 3.968 1.904.768 1.26933 1.152 2.896 1.152 4.88 0 .384-.010666.68267-.032.896-.064 1.728-.496 3.14133-1.296 4.24-.8 1.09867-2.064 1.648-3.792 1.648Z"/></svg>