<svg xmlns="http://www.w3.org/2000/svg" version="1.2" viewBox="0 0 39 34"><path fill="currentColor" fill-rule="evenodd" d="M24.5 1c0 .701.209 1.401.627 2.001L5 3C3.343 3 2 4.343 2 6v13.585l8.293-8.292c.391-.391 1.023-.391 1.414 0L24 23.585l6.293-6.292c.391-.391 1.023-.391 1.414 0L35 20.586v-7.637l.525.526c.427.426.935.719 1.475.88V29c0 2.762-2.239 5-5 5H5c-2.761 0-5-2.238-5-5V6c0-2.762 2.239-5 5-5h19.5ZM11 13.414l-9 8.999V29c0 1.598 1.249 2.903 2.824 2.995L5 32h24.585L11 13.414Zm20 6L25.415 25l6.974 6.975c1.416-.183 2.522-1.354 2.606-2.798L35 29v-5.586l-4-4ZM28.707.293 33 4.585 37.293.293c.391-.391 1.023-.391 1.414 0s.391 1.023 0 1.414L34.415 6l4.292 4.293c.36.36.388.928.084 1.32l-.084.094c-.391.391-1.023.391-1.414 0L33 7.415l-4.293 4.292c-.391.391-1.023.391-1.414 0s-.391-1.023 0-1.414L31.585 6l-4.292-4.293c-.36-.36-.388-.928-.084-1.32l.084-.094c.391-.391 1.023-.391 1.414 0Z"/></svg>