<svg xmlns="http://www.w3.org/2000/svg" version="1.2" viewBox="0 0 47 25"><g fill="none" fill-rule="evenodd"><path stroke="currentColor" stroke-linecap="round" stroke-width="2" d="M3.99999962 2.71042226V22.7104223"/><path fill="currentColor" d="m.16814235 20.5270412 3.44487862 4.2104072c.17486379.2137224.48987514.2452235.70359754.0703597a.4999988.4999988 0 0 0 .07035976-.0703597l3.44487862-4.2104072c.17486378-.2137225.14336265-.5287338-.07035976-.7035976-.08933106-.073089-.20119771-.1130213-.31661889-.1130213H.555121c-.27614238 0-.5.2238576-.5.5 0 .1154211.0399323.2272878.11302135.3166189Zm0-16.1332381L3.61302097.18339592c.17486379-.21372241.48987514-.24522355.70359754-.07035976a.49999975.49999975 0 0 1 .07035976.07035976l3.44487862 4.2104072c.17486378.2137224.14336265.52873375-.07035976.70359754-.08933106.07308905-.20119771.11302135-.31661889.11302135H.555121c-.27614237 0-.5-.22385762-.5-.5 0-.11542118.0399323-.22728783.11302135-.3166189Z"/><path stroke="currentColor" stroke-linecap="round" stroke-linejoin="round" stroke-width="2" d="M15.4999996 1.71042226h30m-30 7h30m-30 7.00000004h30m-30 7h24"/></g></svg>