<svg xmlns="http://www.w3.org/2000/svg" fill="none" version="1.2" viewBox="0 0 35 35"><path fill="currentColor" fill-rule="evenodd" d="M1.89998 15.6285c0-7.58203 6.14649-13.72852 13.72852-13.72852 7.5821 0 13.7286 6.14649 13.7286 13.72852 0 .6081-.0395 1.2069-.1161 1.794.5933.2913 1.1478.6497 1.6534 1.0654.1725-.9268.2627-1.8825.2627-2.8594 0-8.57615-6.9524-15.5285244-15.5286-15.5285244C7.05235.0999756.0999756 7.05235.0999756 15.6285c0 8.5762 6.9523744 15.5286 15.5285244 15.5286 1.2241 0 2.415-.1416 3.5574-.4093-.4388-.4866-.8222-1.0242-1.1402-1.6028-.7847.1394-1.5924.2121-2.4172.2121-7.58203 0-13.72852-6.1465-13.72852-13.7286Z" clip-rule="evenodd"/><path fill="currentColor" fill-rule="evenodd" d="M2.35 15.6286C2.35 8.29502 8.29502 2.35 15.6286 2.35c7.3335 0 13.2785 5.94502 13.2785 13.2786 0 .5408-.0323 1.0741-.0951 1.5979.444.1881.8687.4128 1.2703.6703.1151-.7392.1748-1.4967.1748-2.2682C30.2571 7.54943 23.7077 1 15.6286 1 7.54943 1 1 7.54943 1 15.6286c0 8.0791 6.54943 14.6285 14.6286 14.6285 1.0033 0 1.9831-.101 2.9297-.2934-.276-.3898-.52-.8038-.7282-1.2382-.716.1195-1.4515.1816-2.2015.1816-7.33358 0-13.2786-5.945-13.2786-13.2785Z" clip-rule="evenodd"/><path fill="currentColor" fill-rule="evenodd" d="M15.6286 1C7.54943 1 1 7.54943 1 15.6286c0 8.0791 6.54943 14.6285 14.6286 14.6285" clip-rule="evenodd"/><path stroke="currentColor" stroke-width="1.8" d="M15.6286 1C7.54943 1 1 7.54943 1 15.6286c0 8.0791 6.54943 14.6285 14.6286 14.6285"/><path fill="currentColor" fill-rule="evenodd" d="M22.8729 25.114c0-1.3811 1.0901-2.5007 2.4359-2.5007 1.3459 0 2.436 1.1196 2.436 2.5007 0 1.38-1.0901 2.4997-2.436 2.4997-1.3458 0-2.4359-1.1197-2.4359-2.4997Zm7.2258-2.0373c-.0899-.2248-.071-.4785.0512-.6875l.912-1.5598c.0898-.1532.0668-.3504-.0574-.4779l-1.0556-1.0832c-.1232-.1264-.3153-.1511-.4657-.0589l-1.5225.9374c-.201.1237-.4495.1427-.667.051-.2181-.092-.3797-.2819-.4358-.5118l-.4329-1.7763c-.0428-.1735-.1953-.2957-.3696-.2957h-1.4931c-.1744 0-.3268.1222-.3696.2957l-.433 1.7763c-.056.2299-.2177.4198-.4357.5118-.2176.0917-.466.0727-.6671-.051l-1.5225-.9374c-.1503-.0922-.3424-.0675-.4656.0589l-1.0556 1.0832c-.1243.1275-.1473.3247-.0575.4779l.9121 1.5598c.1222.209.1411.4627.0511.6875-.0895.2239-.2806.3916-.5142.4514l-1.7165.4395c-.1692.0439-.2882.2003-.2882.3803v1.5311c0 .18.119.3364.2882.3804l1.7165.4394c.2336.0599.4247.2276.5142.4515.09.2247.0711.4785-.0511.6874l-.9121 1.5599c-.0898.1532-.0668.3503.0575.4778l1.0556 1.0833c.1232.1264.3153.151.4656.0589l1.5225-.9374c.2011-.1238.4495-.1428.6671-.051.218.092.3797.2818.4357.5118l.433 1.7762c.0428.1736.1952.2968.3696.2968h1.4931c.1743 0 .3268-.1232.3696-.2968l.4329-1.7762c.0561-.23.2177-.4198.4358-.5118.2175-.0918.466-.0728.667.051l1.5225.9374c.1504.0921.3425.0675.4657-.0589l1.0556-1.0833c.1242-.1275.1472-.3246.0574-.4778l-.912-1.5599c-.1222-.2089-.1411-.4627-.0512-.6874.0896-.2239.2806-.3916.5142-.4515l1.7166-.4394c.1691-.044.2881-.2004.2881-.3804v-1.5311c0-.18-.119-.3364-.2881-.3803l-1.7166-.4395c-.2336-.0598-.4246-.2275-.5142-.4514Z" clip-rule="evenodd"/></svg>